<?xml version="1.0" encoding="utf-8"?>
<!-- Generator: Adobe Illustrator 21.1.0, SVG Export Plug-In . SVG Version: 6.00 Build 0)  -->
<svg version="1.1" id="Layer_1" xmlns="http://www.w3.org/2000/svg" xmlns:xlink="http://www.w3.org/1999/xlink" x="0px" y="0px"
	 viewBox="0 0 24 24" style="enable-background:new 0 0 24 24;" xml:space="preserve">
<path d="M6.1,12.2c0,1.7,0.9,3.3,2.6,3.3c1.7,0,2.6-1.5,2.6-3.4c0-1.6-0.8-3.3-2.6-3.3C7,8.9,6.1,10.4,6.1,12.2z"/>
<path d="M21,20H3c-0.5,0-1-0.5-1-1V5c0-0.6,0.5-1,1-1h18c0.5,0,1,0.4,1,1v14C22,19.5,21.5,20,21,20z M8.8,8C6.6,8,5,9.7,5,12.2
	c0,2.4,1.5,4.1,3.6,4.1c2.1,0,3.8-1.5,3.8-4.3C12.4,9.7,11,8,8.8,8z M13.7,16.2h1v-3.1l0.8-0.9l2.7,4h1.2l-3.2-4.7l2.9-3.4h-1.3
	l-2.5,3c-0.2,0.3-0.4,0.6-0.6,0.9h0V8.1h-1V16.2z"/>
</svg>
