<?xml version="1.0" encoding="utf-8"?>
<!-- Generator: Adobe Illustrator 21.1.0, SVG Export Plug-In . SVG Version: 6.00 Build 0)  -->
<svg version="1.1" id="Layer_1" xmlns="http://www.w3.org/2000/svg" xmlns:xlink="http://www.w3.org/1999/xlink" x="0px" y="0px"
	 viewBox="0 0 24 24" style="enable-background:new 0 0 24 24;" xml:space="preserve">
<path d="M6.1,12.2c0,1.7,0.9,3.3,2.6,3.3s2.6-1.5,2.6-3.4c0-1.6-0.8-3.3-2.6-3.3C7,8.9,6.1,10.4,6.1,12.2z"/>
<path d="M8.8,8C6.6,8,5,9.7,5,12.2c0,2.4,1.5,4.1,3.6,4.1s3.8-1.5,3.8-4.3C12.4,9.7,11,8,8.8,8z M13.7,16.2h1v-3.1l0.8-0.9l2.7,4
	h1.2l-3.2-4.7l2.9-3.4h-1.3l-2.5,3c-0.2,0.3-0.4,0.6-0.6,0.9l0,0V8.1h-1C13.7,8.1,13.7,16.2,13.7,16.2z M19,20H5c-1.7,0-3-1.4-3-3V7
	c0-1.7,1.3-3,3-3h14c1.6,0,3,1.3,3,3v10C22,18.6,20.6,20,19,20z"/>
</svg>
