<?xml version="1.0" encoding="utf-8"?>
<!-- Generator: Adobe Illustrator 21.1.0, SVG Export Plug-In . SVG Version: 6.00 Build 0)  -->
<svg version="1.1" id="Layer_1" xmlns="http://www.w3.org/2000/svg" xmlns:xlink="http://www.w3.org/1999/xlink" x="0px" y="0px"
	 viewBox="0 0 24 24" style="enable-background:new 0 0 24 24;" xml:space="preserve">
<g>
	<path d="M4,11.9c0-2.1,0-4.2,0-6.2c0-0.6,0-1.2,0-1.8c0-1,0.8-1.9,1.9-1.9c0.1,0,0.1,0,0.2,0c2.6,0,5.2,0,7.8,0
		c0.1,0,0.2,0,0.3,0.1c1.9,1.9,3.8,3.8,5.7,5.7C20,7.8,20,7.9,20,8c0,4,0,7.9,0,11.9c0,1.1-0.9,2-2,2c-4,0-8,0-12.1,0
		c-1,0-1.9-0.9-1.9-1.9c0-0.7,0-1.5,0-2.2C4,15.8,4,13.9,4,11.9z M10.1,11.1c-1,0.9-1.9,1.9-2.8,2.8c0.9,0.9,1.9,1.9,2.8,2.8
		c-0.7,0.7-1.4,1.4-2.1,2.1c2.3,0,4.6,0,7,0c0-2.3,0-4.7,0-7c0,0,0,0,0,0c-0.7,0.7-1.4,1.4-2.1,2.1C11.9,13,11,12.1,10.1,11.1z
		 M13,8.9c1.8,0,3.6,0,5.4,0c-1.8-1.8-3.6-3.6-5.4-5.4C13,5.3,13,7.1,13,8.9z"/>
</g>
</svg>
