<?xml version="1.0" encoding="utf-8"?>
<!-- Generator: Adobe Illustrator 21.1.0, SVG Export Plug-In . SVG Version: 6.00 Build 0)  -->
<svg version="1.1" id="Layer_1" xmlns="http://www.w3.org/2000/svg" xmlns:xlink="http://www.w3.org/1999/xlink" x="0px" y="0px"
	 viewBox="0 0 24 24" style="enable-background:new 0 0 24 24;" xml:space="preserve">
<path d="M23,20H1V4h22V20z M20.8,18.3h-2.4V19H22v-3.6h-0.7v2.4L17.5,14L17,14.5L20.8,18.3z M3.2,5.7h2.4V5H2v3.6h0.7V6.2L6.5,10
	L7,9.5L3.2,5.7z M17.5,10l3.8-3.8v2.4H22V5h-3.6v0.7h2.4L17,9.5L17.5,10z M7,14.5L6.5,14l-3.8,3.8v-2.4H2V19h3.6v-0.7H3.2L7,14.5z"
	/>
</svg>
