<?xml version="1.0" encoding="utf-8"?>
<!-- Generator: Adobe Illustrator 21.1.0, SVG Export Plug-In . SVG Version: 6.00 Build 0)  -->
<svg version="1.1" id="Layer_1" xmlns="http://www.w3.org/2000/svg" xmlns:xlink="http://www.w3.org/1999/xlink" x="0px" y="0px"
	 viewBox="0 0 24 24" style="enable-background:new 0 0 24 24;" xml:space="preserve">
<path d="M23,20H1V4h22V20z M20.6,18.2h-2.9V19H22v-4.3h-0.8v2.9L16.6,13L16,13.6L20.6,18.2z M3.4,5.8h2.9V5H2v4.3h0.8V6.4L7.4,11
	L8,10.4L3.4,5.8z M16.6,11l4.6-4.6v2.9H22V5h-4.3v0.8h2.9L16,10.4L16.6,11z M8,13.6L7.4,13l-4.6,4.6v-2.9H2V19h4.3v-0.8H3.4L8,13.6z
	"/>
</svg>
