<?xml version="1.0" encoding="utf-8"?>
<!-- Generator: Adobe Illustrator 21.1.0, SVG Export Plug-In . SVG Version: 6.00 Build 0)  -->
<svg version="1.1" id="Layer_1" xmlns="http://www.w3.org/2000/svg" xmlns:xlink="http://www.w3.org/1999/xlink" x="0px" y="0px"
	 viewBox="0 0 24 24" style="enable-background:new 0 0 24 24;" xml:space="preserve">
<polygon points="12,2 12,4.5 14,4.5 14,5.5 12,5.5 12,6.5 15.5,6.5 15.5,7.5 12,7.5 12,8.5 14,8.5 14,9.5 12,9.5 12,10.5 15.5,10.5 
	15.5,11.5 12,11.5 12,12.5 14,12.5 14,13.5 12,13.5 12,14.5 15.5,14.5 15.5,15.5 12,15.5 12,16.5 14,16.5 14,17.5 12,17.5 12,18.5 
	15.5,18.5 15.5,19.5 12,19.5 12,22 18,22 18,2 "/>
<path d="M10,3.2v17.5c0,0.7-0.6,1.2-1.2,1.2H7.3C6.6,22,6,21.4,6,20.8V3.2C6,2.6,6.6,2,7.3,2h1.5C9.4,2,10,2.6,10,3.2z M8.3,7.5H7.7
	c-0.1,0-0.3,0.1-0.3,0.2v12.9c0,0.1,0.1,0.3,0.3,0.3h0.6c0.1,0,0.3-0.1,0.3-0.3V7.7C8.5,7.6,8.4,7.5,8.3,7.5z"/>
</svg>
