<?xml version="1.0" encoding="utf-8"?>
<!-- Generator: Adobe Illustrator 21.1.0, SVG Export Plug-In . SVG Version: 6.00 Build 0)  -->
<svg version="1.1" id="Layer_1" xmlns="http://www.w3.org/2000/svg" xmlns:xlink="http://www.w3.org/1999/xlink" x="0px" y="0px"
	 viewBox="0 0 24 24" style="enable-background:new 0 0 24 24;" xml:space="preserve">
<polygon points="13,2 13,4.5 15,4.5 15,5.5 13,5.5 13,6.5 16.5,6.5 16.5,7.5 13,7.5 13,8.5 15,8.5 15,9.5 13,9.5 13,10.5 16.5,10.5 
	16.5,11.5 13,11.5 13,12.5 15,12.5 15,13.5 13,13.5 13,14.5 16.5,14.5 16.5,15.5 13,15.5 13,16.5 15,16.5 15,17.5 13,17.5 13,18.5 
	16.5,18.5 16.5,19.5 13,19.5 13,22 19,22 19,2 "/>
<path d="M9.5,4.2v15.5c0,0.7-0.6,1.2-1.2,1.2h0C7.6,21,7,20.4,7,19.8V4.2C7,3.6,7.6,3,8.2,3h0C8.9,3,9.5,3.6,9.5,4.2z M8.3,9L8.3,9
	C8.1,9,8,9.1,8,9.3v10.5C8,19.9,8.1,20,8.3,20l0,0c0.1,0,0.3-0.1,0.3-0.3V9.3C8.5,9.1,8.4,9,8.3,9z"/>
</svg>
