<?xml version="1.0" encoding="utf-8"?>
<!-- Generator: Adobe Illustrator 21.1.0, SVG Export Plug-In . SVG Version: 6.00 Build 0)  -->
<svg version="1.1" id="Layer_1" xmlns="http://www.w3.org/2000/svg" xmlns:xlink="http://www.w3.org/1999/xlink" x="0px" y="0px"
	 viewBox="0 0 24 24" style="enable-background:new 0 0 24 24;" xml:space="preserve">
<rect x="18" y="11.5" transform="matrix(-1.836970e-16 1 -1 -1.836970e-16 31 -7)" width="2" height="1"/>
<rect x="16" y="11.5" transform="matrix(-1.836970e-16 1 -1 -1.836970e-16 29 -5)" width="2" height="1"/>
<rect x="14" y="11.5" transform="matrix(-1.836970e-16 1 -1 -1.836970e-16 27 -3)" width="2" height="1"/>
<rect x="12" y="11.5" transform="matrix(-1.836970e-16 1 -1 -1.836970e-16 25 -1)" width="2" height="1"/>
<rect x="10" y="11.5" transform="matrix(-1.836970e-16 1 -1 -1.836970e-16 23 1)" width="2" height="1"/>
<rect x="8" y="11.5" transform="matrix(-1.836970e-16 1 -1 -1.836970e-16 21 3)" width="2" height="1"/>
<rect x="6" y="11.5" transform="matrix(-1.836970e-16 1 -1 -1.836970e-16 19 5)" width="2" height="1"/>
<rect x="4" y="11.5" transform="matrix(-1.836970e-16 1 -1 -1.836970e-16 17 7)" width="2" height="1"/>
</svg>
