<?xml version="1.0" encoding="utf-8"?>
<!-- Generator: Adobe Illustrator 21.1.0, SVG Export Plug-In . SVG Version: 6.00 Build 0)  -->
<svg version="1.1" id="Layer_1" xmlns="http://www.w3.org/2000/svg" xmlns:xlink="http://www.w3.org/1999/xlink" x="0px" y="0px"
	 viewBox="0 0 24 24" style="enable-background:new 0 0 24 24;" xml:space="preserve">
<style type="text/css">
	.st0{fill-opacity:0.7451;}
</style>
<path class="st0" d="M17.2,6l0.9,3.4l-0.8,0.2C17,9,16.7,8.3,16.3,7.9c-0.4-0.3-0.9-0.3-1.4-0.3h-2v8.3c0,0.4,0,0.8,0.3,1
	c0.3,0.2,0.8,0.2,1.3,0.2v0.8H9.7v-0.8c0.5,0,1.1,0,1.3-0.2c0.3-0.2,0.3-0.6,0.3-1V7.6h-2c-0.5,0-1,0-1.4,0.3C7.5,8.3,7.1,9,6.8,9.7
	L6,9.4L6.9,6H17.2z M19,5H5v14h14V5z"/>
<path d="M5,5H2.5V2.5H5V5z M4.5,3H3v1.5h1.5V3z"/>
<path d="M21.5,21.5H19V19h2.5V21.5z M21,19.5h-1.5V21H21V19.5z"/>
<path d="M21.5,5H19V2.5h2.5V5z M21,3h-1.5v1.5H21V3z"/>
<path d="M5,21.5H2.5V19H5V21.5z M4.5,19.5H3V21h1.5V19.5z"/>
</svg>
