<?xml version="1.0" encoding="utf-8"?>
<!-- Generator: Adobe Illustrator 21.1.0, SVG Export Plug-In . SVG Version: 6.00 Build 0)  -->
<svg version="1.1" id="Layer_1" xmlns="http://www.w3.org/2000/svg" xmlns:xlink="http://www.w3.org/1999/xlink" x="0px" y="0px"
	 viewBox="0 0 24 24" style="enable-background:new 0 0 24 24;" xml:space="preserve">
<path d="M19,20H5c-1.7,0-3-1.4-3-3V7c0-1.7,1.3-3,3-3h14c1.6,0,3,1.3,3,3v10C22,18.6,20.6,20,19,20z M7.3,12.8L8,12l-0.6-0.8H6.1
	L5.3,12l0.6,0.8L7.3,12.8z M8.9,13l-0.6-0.9L7.5,13l-0.2,1.8l0.6,1l0.8-1L8.9,13z M6.9,16.7l0.8-1l-0.6-1l-1.4,0l-0.8,1l0.6,1
	L6.9,16.7z M9.3,9.2l-0.6-1l-0.8,1L7.7,11l0.6,0.9L9.1,11L9.3,9.2z M7.6,9.1l0.8-1l-0.6-1l-1.4,0l-0.8,1l0.6,1L7.6,9.1z M5.7,13
	L5,12.1L4.2,13l-0.2,1.8l0.6,1l0.8-1L5.7,13z M6,9.2l-0.6-1l-0.8,1L4.4,11L5,11.9L5.8,11L6,9.2z M12.7,12.8l0.8-0.8l-0.6-0.8h-1.4
	L10.7,12l0.6,0.8L12.7,12.8z M14.3,13l-0.6-0.9L12.9,13l-0.2,1.8l0.6,1l0.8-1L14.3,13z M12.3,16.7l0.8-1l-0.6-1l-1.4,0l-0.8,1l0.6,1
	L12.3,16.7z M14.7,9.2l-0.6-1l-0.8,1L13.1,11l0.6,0.9l0.8-0.9L14.7,9.2z M13,9.1l0.8-1l-0.6-1l-1.4,0l-0.8,1l0.6,1L13,9.1z M11,13
	l-0.6-0.9L9.6,13l-0.2,1.8l0.6,1l0.8-1L11,13z M11.4,9.2l-0.6-1l-0.8,1L9.8,11l0.6,0.9l0.8-0.9L11.4,9.2z M18,12.8l0.8-0.8l-0.6-0.8
	h-1.4L16.1,12l0.6,0.8L18,12.8z M19.7,13l-0.6-0.9L18.3,13l-0.2,1.8l0.6,1l0.8-1L19.7,13z M17.7,16.7l0.8-1l-0.6-1l-1.4,0l-0.8,1
	l0.6,1L17.7,16.7z M20.1,9.2l-0.6-1l-0.8,1L18.5,11l0.6,0.9l0.8-0.9L20.1,9.2z M18.4,9.1l0.8-1l-0.6-1l-1.4,0l-0.8,1l0.6,1L18.4,9.1
	z M16.4,13l-0.6-0.9L15,13l-0.2,1.8l0.6,1l0.8-1L16.4,13z M16.8,9.2l-0.6-1l-0.8,1L15.2,11l0.6,0.9l0.8-0.9L16.8,9.2z"/>
</svg>
