<?xml version="1.0" encoding="utf-8"?>
<!-- Generator: Adobe Illustrator 21.1.0, SVG Export Plug-In . SVG Version: 6.00 Build 0)  -->
<svg version="1.1" id="Layer_1" xmlns="http://www.w3.org/2000/svg" xmlns:xlink="http://www.w3.org/1999/xlink" x="0px" y="0px"
	 viewBox="0 0 24 24" style="enable-background:new 0 0 24 24;" xml:space="preserve">
<path d="M12.7,18.6c0,0.2-0.1,0.4-0.3,0.5l-4.9,2.8C7.3,22,7.2,22,7.1,22s-0.3,0-0.4-0.1l-4.9-2.8c-0.2-0.1-0.3-0.3-0.3-0.5V13
	c0-0.2,0.1-0.4,0.3-0.5l4.9-2.8c0.1-0.1,0.2-0.1,0.4-0.1s0.3,0,0.4,0.1l4.9,2.8c0.2,0.1,0.3,0.3,0.3,0.5V18.6z M7.1,10.9L3.4,13
	l3.7,2.1l3.7-2.1L7.1,10.9z"/>
<g>
	<rect x="5.5" y="2.5" width="17" height="1"/>
	<rect x="13.5" y="10.5" transform="matrix(-1.836970e-16 1 -1 -1.836970e-16 33 -11)" width="17" height="1"/>
	<rect x="5.5" y="10.5" transform="matrix(6.123234e-17 -1 1 6.123234e-17 3 25)" width="17" height="1"/>
	<rect x="8.5" y="10.5" width="14" height="1"/>
	<rect x="5.5" y="18.5" width="17" height="1"/>
	<rect x="1.8" y="6.3" transform="matrix(6.123234e-17 -1 1 6.123234e-17 -0.75 12.75)" width="8.5" height="1"/>
</g>
</svg>
