<?xml version="1.0" encoding="utf-8"?>
<!-- Generator: Adobe Illustrator 21.1.0, SVG Export Plug-In . SVG Version: 6.00 Build 0)  -->
<svg version="1.1" id="Layer_1" xmlns="http://www.w3.org/2000/svg" xmlns:xlink="http://www.w3.org/1999/xlink" x="0px" y="0px"
	 viewBox="0 0 24 24" style="enable-background:new 0 0 24 24;" xml:space="preserve">
<path d="M4,1h16c0.6,0,1,0.4,1,1v4c0,0.6-0.4,1-1,1H4C3.4,7,3,6.6,3,6V2C3,1.4,3.4,1,4,1z M4,9h16c0.6,0,1,0.4,1,1v4
	c0,0.6-0.4,1-1,1H4c-0.6,0-1-0.4-1-1v-4C3,9.4,3.4,9,4,9z M4,17h16c0.6,0,1,0.4,1,1v4c0,0.6-0.4,1-1,1H4c-0.6,0-1-0.4-1-1v-4
	C3,17.4,3.4,17,4,17z M5,3v2h2V3H5z M5,11v2h2v-2H5z M5,19v2h2v-2H5z"/>
</svg>
