<?xml version="1.0" encoding="utf-8"?>
<!-- Generator: Adobe Illustrator 21.1.0, SVG Export Plug-In . SVG Version: 6.00 Build 0)  -->
<svg version="1.1" id="Layer_1" xmlns="http://www.w3.org/2000/svg" xmlns:xlink="http://www.w3.org/1999/xlink" x="0px" y="0px"
	 viewBox="0 0 24 24" style="enable-background:new 0 0 24 24;" xml:space="preserve">
<rect x="2" y="3.7" width="20" height="0.5"/>
<circle cx="11.9" cy="4" r="0.5"/>
<polygon points="18.9,10 17.9,10 11.9,4 "/>
<polygon points="4.9,10 5.9,10 11.9,4 "/>
<rect x="17.9" y="10" width="1" height="10.5"/>
<rect x="4.9" y="10" width="1" height="10.5"/>
<polygon points="5.4,10.5 18.4,10.5 17.9,9.5 5.9,9.5 "/>
<rect x="5.4" y="19.5" width="13" height="1"/>
<polygon points="11.9,4 11.9,4 18.9,20.5 17.9,20.5 "/>
<polygon points="11.9,4 11.9,4 4.9,20.5 5.9,20.5 "/>
<rect x="8" y="13.5" width="8" height="0.5"/>
<rect x="8" y="7.5" width="8" height="0.5"/>
<rect x="12.5" y="10.5" transform="matrix(-1.836970e-16 1 -1 -1.836970e-16 26.5 -5)" width="6.5" height="0.5"/>
<rect x="5" y="10.5" transform="matrix(6.123234e-17 -1 1 6.123234e-17 -2.5 19)" width="6.5" height="0.5"/>
</svg>
