<?xml version="1.0" encoding="utf-8"?>
<!-- Generator: Adobe Illustrator 21.1.0, SVG Export Plug-In . SVG Version: 6.00 Build 0)  -->
<svg version="1.1" id="Layer_1" xmlns="http://www.w3.org/2000/svg" xmlns:xlink="http://www.w3.org/1999/xlink" x="0px" y="0px"
	 viewBox="0 0 24 24" style="enable-background:new 0 0 24 24;" xml:space="preserve">
<path d="M13.7,16.6c0,0.5,0,0.9,0,1.4c0,0.3-0.1,0.5-0.4,0.6c-1.6,0.6-3.3,0.9-5,0.8c-1.8,0-3.6-0.3-5.3-0.9c-0.2,0-0.4-0.3-0.4-0.4
	c0-1.2,0-2.4,0.1-3.6c0.2-1.9,1.6-3.5,3.6-3.6c1.3-0.1,2.5-0.1,3.8,0c2.2,0.2,3.6,2,3.7,4.2C13.7,15.7,13.7,16.1,13.7,16.6z"/>
<path d="M8.1,4.1c1.8,0,3.2,1.5,3.2,3.3S9.8,10.7,8,10.7S4.8,9.2,4.8,7.4S6.3,4.1,8.1,4.1z"/>
<path d="M21.5,7.9h-8.9c0.1-0.8,0-1.2-0.2-1.9h9.1V7.9"/>
<path d="M21.5,9.5h-9.2C12.2,9.7,12.1,9.8,12,10c0.8,0.3,1.3,0.8,1.8,1.4h7.7V9.5z"/>
<path d="M14.7,13c0.2,0.7,0.3,1.1,0.4,1.9l0,0h6.5V13H14.7"/>
</svg>
