<?xml version="1.0" encoding="utf-8"?>
<!-- Generator: Adobe Illustrator 21.1.0, SVG Export Plug-In . SVG Version: 6.00 Build 0)  -->
<svg version="1.1" id="Layer_1" xmlns="http://www.w3.org/2000/svg" xmlns:xlink="http://www.w3.org/1999/xlink" x="0px" y="0px"
	 viewBox="0 0 24 24" style="enable-background:new 0 0 24 24;" xml:space="preserve">
<path d="M13.7,16.6c0,0.5,0,0.9,0,1.4c0,0.3-0.1,0.5-0.4,0.6c-1.6,0.6-3.3,0.9-5,0.8c-1.8,0-3.6-0.3-5.3-0.9c-0.2,0-0.4-0.3-0.4-0.4
	c0-1.2,0-2.4,0.1-3.6c0.2-1.9,1.6-3.5,3.6-3.6c1.3-0.1,2.5-0.1,3.8,0c2.2,0.2,3.6,2,3.7,4.2C13.7,15.7,13.7,16.1,13.7,16.6z"/>
<path d="M8.1,4.1c1.8,0,3.2,1.5,3.2,3.3c0,1.8-1.5,3.3-3.3,3.3c-1.8,0-3.2-1.5-3.2-3.3C4.8,5.6,6.3,4.1,8.1,4.1z"/>
<path d="M21.5,14.7h-6.7c-0.1-0.9-0.2-1.4-0.5-1.9h7.2V14.7z"/>
<path d="M13.5,11.3h8l0-1.9h-9.2c-0.2,0.3-0.2,0.4-0.5,0.7C12.4,10.4,12.9,10.8,13.5,11.3z"/>
<path d="M21.5,8h-8.9c0.1-0.8,0-1.2-0.2-1.9h9.1V8"/>
</svg>
