<?xml version="1.0" encoding="utf-8"?>
<!-- Generator: Adobe Illustrator 21.1.0, SVG Export Plug-In . SVG Version: 6.00 Build 0)  -->
<svg version="1.1" id="Layer_1" xmlns="http://www.w3.org/2000/svg" xmlns:xlink="http://www.w3.org/1999/xlink" x="0px" y="0px"
	 viewBox="0 0 24 24" style="enable-background:new 0 0 24 24;" xml:space="preserve">
<g>
	<path d="M5.2,12.9c0.3,0.4,0.6,0.8,0.9,1.1c-0.3,0.6-0.7,1.2-1,1.8c-0.3,0.7-0.6,1.4-0.7,2.1c0,0.2,0,0.3,0,0.5
		c0,0.7,0.4,1,1.1,1.1c0.7,0,1.3-0.2,2-0.4c1.4-0.6,2.7-1.4,3.9-2.3c0.7-0.5,1.3-1.1,2-1.6c1.1-0.9,2.1-2,3-3.1c0,0,0.1-0.1,0.1-0.2
		c-0.4-0.4-0.8-0.9-1.1-1.3c-0.5-0.6-1.1-1.2-1.7-1.7c-0.5-0.4-1-0.8-1.4-1.2c0,0-0.2-0.1-0.2,0c-0.4,0.3-0.8,0.7-1.2,1
		c0.4,0.4,0.8,0.8,1.3,1.2c-1.5,0.3-2.9,0.5-4.3,0.8c0.3-1.4,0.5-2.9,0.8-4.3c0.4,0.4,0.8,0.9,1.2,1.3c0.4-0.4,0.8-0.7,1.1-1
		c-0.1-0.1-0.2-0.1-0.3-0.2C9.3,5.8,8.2,5,6.8,4.6C6.4,4.5,5.9,4.5,5.5,4.5c-0.7,0-1,0.4-1,1c0,0.6,0.1,1.2,0.3,1.8
		c0.5,1.5,1.4,2.8,2.3,4c0.5,0.6,1,1.2,1.5,1.8c0.4-0.4,0.8-0.8,1.3-1.3c0.3,1.5,0.5,2.9,0.8,4.3c-1.4-0.3-2.9-0.5-4.3-0.8
		c0.4-0.4,0.9-0.9,1.3-1.3C7,13.5,6.5,12.8,6,12.2c-1.1-1.4-2-2.9-2.6-4.6C3.1,6.8,2.9,6,3,5.1C3.2,3.8,4.1,3.1,5.4,3
		c1,0,1.9,0.2,2.8,0.6c1.3,0.5,2.5,1.3,3.6,2.1c0.1,0.1,0.2,0.1,0.4,0c1.3-0.9,2.7-1.8,4.2-2.3C17.2,3.1,18,2.9,18.9,3
		c1.3,0.2,2.1,1.1,2.1,2.4c0,1-0.2,1.9-0.6,2.8c-0.5,1.3-1.2,2.5-2.1,3.6c-0.1,0.2-0.1,0.3,0,0.4c1,1.3,1.8,2.7,2.3,4.3
		c0.3,0.8,0.4,1.5,0.3,2.4c-0.2,1.3-1.1,2.1-2.4,2.1c-1,0-2-0.3-2.9-0.7c-0.7-0.3-1.4-0.7-2.1-1.1c-0.2-0.1-0.5-0.3-0.7-0.4
		c0.4-0.3,0.8-0.6,1.1-0.9c0,0,0.2,0,0.2,0c0.8,0.5,1.7,1,2.6,1.3c0.5,0.2,1,0.3,1.6,0.3c0.7,0,1.1-0.4,1.1-1.1
		c0-0.6-0.1-1.1-0.3-1.6c-0.4-1.1-1.3-2.8-2-3.6c-0.1,0.1-0.1,0.1-0.2,0.2c-1.1,1.3-2.2,2.5-3.5,3.6c-1.6,1.3-3.3,2.6-5.3,3.4
		C7.4,20.7,6.5,21,5.6,21c-0.4,0-0.8-0.1-1.1-0.2c-1-0.4-1.4-1.2-1.4-2.2c-0.1-1,0.2-1.9,0.6-2.8c0.4-1,0.9-1.9,1.5-2.7
		C5.1,13,5.1,13,5.2,12.9z M17.2,10.8C17.3,10.8,17.3,10.8,17.2,10.8c0.9-1.2,1.6-2.4,2-3.7c0.2-0.5,0.2-1,0.3-1.5
		c0-0.7-0.4-1.1-1.1-1.1c-0.5,0-1,0.1-1.4,0.2c-1.2,0.4-2.3,1-3.4,1.8c-0.1,0.1-0.3,0.2-0.5,0.3C14.7,8,16,9.3,17.2,10.8z"/>
</g>
</svg>
