<?xml version="1.0" encoding="utf-8"?>
<!-- Generator: Adobe Illustrator 21.1.0, SVG Export Plug-In . SVG Version: 6.00 Build 0)  -->
<svg version="1.1" id="Layer_1" xmlns="http://www.w3.org/2000/svg" xmlns:xlink="http://www.w3.org/1999/xlink" x="0px" y="0px"
	 viewBox="0 0 24 24" style="enable-background:new 0 0 24 24;" xml:space="preserve">
<g>
	<path d="M7,13c0-0.1,0-0.1,0-0.2c0-3.1,0-6.2,0-9.3c0-0.6,0.4-1,1-1c4.2,0,8.3,0,12.5,0c0.6,0,1,0.4,1,1c0,4.2,0,8.3,0,12.5
		c0,0.6-0.4,1-1,1c-3.1,0-6.2,0-9.3,0c0,0-0.1,0-0.2,0c0,0,0,0.1,0,0.1c0,1.1,0,2.2,0,3.3c0,0.6-0.4,1-1,1c-2.1,0-4.3,0-6.4,0
		c-0.6,0-1-0.4-1-1c0-2.2,0-4.3,0-6.5c0-0.5,0.4-1,1-1c1.1,0,2.2,0,3.4,0C6.9,13,6.9,13,7,13z M19,10.7c0-1.9,0-3.8,0-5.7
		c-1.9,0-3.8,0-5.7,0c0,0.4,0,0.8,0,1.1c1.2,0,2.5,0,3.8,0c-4.1,4.1-8.2,8.2-12.3,12.3C5,18.8,5.3,19,5.5,19.3
		c4.1-4.1,8.2-8.2,12.3-12.3c0,1.3,0,2.5,0,3.7C18.2,10.7,18.6,10.7,19,10.7z"/>
</g>
</svg>
