<?xml version="1.0" encoding="utf-8"?>
<!-- Generator: Adobe Illustrator 21.1.0, SVG Export Plug-In . SVG Version: 6.00 Build 0)  -->
<svg version="1.1" id="Layer_1" xmlns="http://www.w3.org/2000/svg" xmlns:xlink="http://www.w3.org/1999/xlink" x="0px" y="0px"
	 viewBox="0 0 24 24" style="enable-background:new 0 0 24 24;" xml:space="preserve">
<g>
	<rect x="4" y="4" width="3" height="3"/>
	<rect x="11" y="7" width="4" height="2"/>
	<rect x="11" y="11" width="4" height="3"/>
	<rect x="6.5" y="14.5" width="4" height="2"/>
	<rect x="6.5" y="17.5" width="4" height="2.5"/>
	<rect x="17" y="11" width="3" height="2.5"/>
	<rect x="18" y="7.5" width="1" height="8.5"/>
	<rect x="10" y="15" width="9" height="1"/>
	<rect x="15" y="7.5" width="4" height="1"/>
	<rect x="12.5" y="5" width="1" height="2"/>
	<rect x="6.5" y="5" width="7" height="1"/>
	<rect x="12.5" y="8.5" width="1" height="2.5"/>
	<rect x="8" y="12" width="3.5" height="1"/>
	<rect x="8" y="12.5" width="1" height="2"/>
	<rect x="8" y="16.5" width="1" height="3"/>
</g>
</svg>
