<?xml version="1.0" encoding="utf-8"?>
<!-- Generator: Adobe Illustrator 21.1.0, SVG Export Plug-In . SVG Version: 6.00 Build 0)  -->
<svg version="1.1" id="Layer_1" xmlns="http://www.w3.org/2000/svg" xmlns:xlink="http://www.w3.org/1999/xlink" x="0px" y="0px"
	 viewBox="0 0 24 24" style="enable-background:new 0 0 24 24;" xml:space="preserve">
<polygon points="22,14 19.5,14 19.5,16 18.5,16 18.5,14 17.5,14 17.5,17.5 16.5,17.5 16.5,14 15.5,14 15.5,16 14.5,16 14.5,14 
	13.5,14 13.5,17.5 12.5,17.5 12.5,14 11.5,14 11.5,16 10.5,16 10.5,14 9.5,14 9.5,17.5 8.5,17.5 8.5,14 7.5,14 7.5,16 6.5,16 
	6.5,14 5.5,14 5.5,17.5 4.5,17.5 4.5,14 2,14 2,20 22,20 "/>
<path d="M13.5,9H3.7C3.3,9,3,8.7,3,8.3V7.7C3,7.3,3.3,7,3.7,7h9.8"/>
<path d="M18.5,7l1.8,0C20.7,7,21,7.3,21,7.8l0,0.5C21,8.7,20.7,9,20.2,9l-1.8,0"/>
<path d="M16,11L16,11c-0.8,0-1.5-0.7-1.5-1.5v-3C14.5,5.7,15.2,5,16,5h0c0.8,0,1.5,0.7,1.5,1.5v3C17.5,10.3,16.8,11,16,11z"/>
</svg>
