<?xml version="1.0" encoding="utf-8"?>
<!-- Generator: Adobe Illustrator 21.1.0, SVG Export Plug-In . SVG Version: 6.00 Build 0)  -->
<svg version="1.1" id="Layer_1" xmlns="http://www.w3.org/2000/svg" xmlns:xlink="http://www.w3.org/1999/xlink" x="0px" y="0px"
	 viewBox="0 0 24 24" style="enable-background:new 0 0 24 24;" xml:space="preserve">
<path d="M11.8,20.6l7.6-7.8c-1.1,1.2-3.8,0.3-5.9-1.8s-3.1-4.7-1.9-5.9l-7.6,7.8c-1.1,1.2-0.6,4.2,1.5,6.3S10.7,21.7,11.8,20.6z"/>
<path d="M19.1,5.2c2.2,2.1,2.9,4.9,1.5,6.3s-4.2,0.8-6.3-1.4s-2.9-4.9-1.5-6.3S16.9,3.1,19.1,5.2z M17.9,6.4c-1.4-1.3-3-1.8-3.7-1.2
	c-0.7,0.7-0.1,2.3,1.3,3.6s3,1.8,3.7,1.2C19.8,9.4,19.2,7.8,17.9,6.4z"/>
</svg>
