<?xml version="1.0" encoding="utf-8"?>
<!-- Generator: Adobe Illustrator 21.1.0, SVG Export Plug-In . SVG Version: 6.00 Build 0)  -->
<svg version="1.1" id="Layer_1" xmlns="http://www.w3.org/2000/svg" xmlns:xlink="http://www.w3.org/1999/xlink" x="0px" y="0px"
	 viewBox="0 0 24 24" style="enable-background:new 0 0 24 24;" xml:space="preserve">
<rect x="17.9" y="10" width="1.1" height="10.5"/>
<rect x="5" y="10" width="0.9" height="10.5"/>
<polygon points="5.4,10.5 18.4,10.5 17.9,9.5 5.9,9.5 "/>
<rect x="5.4" y="19.5" width="13" height="1"/>
<polygon points="15.5,13.5 15.5,12.5 18.9,20.5 17.9,20.5 "/>
<polygon points="8.4,13.5 8.4,12.5 5,20.5 6,20.5 "/>
<rect x="8" y="13.5" width="8" height="0.5"/>
<rect x="8" y="7.5" width="8" height="0.5"/>
<rect x="12.5" y="10.5" transform="matrix(-1.836970e-16 1 -1 -1.836970e-16 26.5 -5)" width="6.5" height="0.5"/>
<rect x="5" y="10.5" transform="matrix(6.123234e-17 -1 1 6.123234e-17 -2.5 19)" width="6.5" height="0.5"/>
<polygon points="19,10 18,10 15.5,7.5 16,7.5 "/>
<polygon points="5,10 6,10 8.5,7.5 8,7.5 "/>
<rect x="5" y="10" width="14" height="10.5"/>
</svg>
