<?xml version="1.0" encoding="utf-8"?>
<!-- Generator: Adobe Illustrator 21.1.0, SVG Export Plug-In . SVG Version: 6.00 Build 0)  -->
<svg version="1.1" id="Layer_1" xmlns="http://www.w3.org/2000/svg" xmlns:xlink="http://www.w3.org/1999/xlink" x="0px" y="0px"
	 viewBox="0 0 24 24" style="enable-background:new 0 0 24 24;" xml:space="preserve">
<circle cx="12" cy="3.6" r="1.6"/>
<rect x="11.5" y="4" width="1" height="5.7"/>
<rect x="8.2" y="1.6" transform="matrix(0.5356 0.8445 -0.8445 0.5356 8.8158 -4.7759)" width="1" height="8"/>
<circle cx="5.1" cy="8" r="1.6"/>
<rect x="4.5" y="9.3" width="1" height="5.7"/>
<circle cx="5.1" cy="16.2" r="1.6"/>
<rect x="8.1" y="14.4" transform="matrix(-0.5356 0.8445 -0.8445 -0.5356 28.7777 20.9611)" width="1" height="8"/>
<circle cx="12.1" cy="12.1" r="1.6"/>
<circle cx="12" cy="20.4" r="1.6"/>
<rect x="11.5" y="14.4" width="1" height="5.7"/>
<rect x="7.1" y="11.9" transform="matrix(0.5 0.866 -0.866 0.5 16.5498 0.8351)" width="1" height="5.7"/>
<rect x="7" y="6.6" transform="matrix(-0.5358 0.8444 -0.8444 -0.5358 19.5518 8.1669)" width="1" height="5.7"/>
<rect x="14.9" y="1.6" transform="matrix(-0.5356 0.8445 -0.8445 -0.5356 28.3755 -4.3931)" width="1" height="8"/>
<circle cx="19" cy="7.9" r="1.6"/>
<rect x="18.6" y="9.3" transform="matrix(-1 -4.547486e-11 4.547486e-11 -1 38.2914 24.3021)" width="1" height="5.7"/>
<circle cx="19.1" cy="16.2" r="1.6"/>
<rect x="15" y="14.4" transform="matrix(0.5356 0.8445 -0.8445 0.5356 22.7245 -4.5741)" width="1" height="8"/>
<rect x="16.1" y="11.9" transform="matrix(-0.5 0.866 -0.866 -0.5 37.647 7.7231)" width="1" height="5.7"/>
<rect x="16.1" y="6.6" transform="matrix(0.5358 0.8444 -0.8444 0.5358 15.6818 -9.6479)" width="1" height="5.7"/>
</svg>
